#!OML:ASF I:\Actors\actors\Patient Classification 2\Patient 1\Session 1\actor1.ASF
:FULLY-SPECIFIED
:DEGREES
208
root -0.764891 18.7585 5.06975 3.08117 -0.992316 -3.29875
lowerback 4.47584 1.34973 -3.66092
upperback 0.35622 1.56005 -2.32697
thorax -2.17633 0.801087 -0.4396
lowerneck -13.6368 0.687013 1.77751
upperneck 35.8229 -0.509631 2.86437
head 14.6658 0.411665 0.784687
rclavicle 1.59028e-014 -6.36111e-015
rhumerus 41.0931 63.2243 -16.6579
rradius 107.691
rwrist -26.5617
rhand 8.02931 -52.021
rfingers 7.12502
rthumb 33.2549 -78.967
lclavicle 1.59028e-014 -6.36111e-015
lhumerus 4.4303 -46.5356 53.4037
lradius 81.531
lwrist 44.462
lhand 3.30214 -25.0406
lfingers 7.12502
lthumb 28.7492 2.76604
rfemur 0 0 0
rtibia 0
rfoot 0 0
rtoes 0
lfemur -8.17878 -8.29592 -10.188
ltibia 22.0646
lfoot -22.8763 17.3729
ltoes -54.8796
209
root -0.785965 18.7553 5.08707 2.90054 -1.12825 -3.24044
lowerback 4.24266 1.37917 -4.04866
upperback 0.551761 1.60344 -2.25155
thorax -1.85793 0.820375 -0.139058
lowerneck -13.7308 0.660508 1.77288
upperneck 35.8154 -0.57845 2.93152
head 14.6855 0.39084 0.802526
rclavicle -1.8487e-014 3.02153e-014
rhumerus 39.5412 62.687 -19.8052
rradius 107.183
rwrist -27.2987
rhand 4.14095 -52.6466
rfingers 7.12502
rthumb 29.5503 -80.3144
lclavicle -1.8487e-014 3.02153e-014
lhumerus 4.55445 -46.5079 53.3283
lradius 81.5436
lwrist 44.3972
lhand 3.42463 -25.2298
lfingers 7.12502
lthumb 28.8662 2.55688
rfemur 0 0 0
rtibia 0
rfoot 0 0
rtoes 0
lfemur -7.80313 -7.8122 -10.1875
ltibia 21.951
lfoot -22.6973 17.0729
ltoes -55.0519
210
root -0.791072 18.753 5.09293 2.80258 -1.46488 -3.1218
lowerback 4.0403 1.46764 -4.20488
upperback 0.687378 1.73149 -2.284
thorax -1.61213 0.880268 -0.0850083
lowerneck -13.7389 0.638618 1.81853
upperneck 35.7448 -0.629642 2.94278
head 14.6552 0.375419 0.789473
rclavicle 1.27222e-014 -2.22639e-014
rhumerus 37.3245 61.6824 -23.6659
rradius 105.66
rwrist -25.3816
rhand 1.55969 -50.8318
rfingers 7.12502
rthumb 27.0834 -78.9092
lclavicle 1.27222e-014 -2.22639e-014
lhumerus 4.74782 -46.537 53.116
lradius 81.6291
lwrist 44.4049
lhand 3.46387 -25.5501
lfingers 7.12502
lthumb 28.9037 2.23016
rfemur 0 0 0
rtibia 0
rfoot 0 0
rtoes 0
lfemur -7.51395 -7.62119 -10.3462
ltibia 21.8548
lfoot -22.7634 17.1736
ltoes -55.0088
211
root -0.7874 18.7511 5.0903 2.72404 -1.84808 -3.06379
lowerback 3.94719 1.5637 -4.26289
upperback 0.765105 1.86584 -2.28257
thorax -1.48588 0.944843 -0.0546249
lowerneck -13.7248 0.640536 1.81014
upperneck 35.7126 -0.627807 2.95185
head 14.6368 0.375408 0.79423
rclavicle 5.96354e-015 -3.49861e-014
rhumerus 35.3684 60.6577 -26.9116
rradius 103.777
rwrist -21.8331
rhand -1.8159 -47.4192
rfingers 7.12502
rthumb 23.85 -75.9585
lclavicle 5.96354e-015 -3.49861e-014
lhumerus 4.9081 -46.5357 52.9493
lradius 81.7178
lwrist 44.4574
lhand 3.34946 -25.6237
lfingers 7.12502
lthumb 28.7944 2.1752
rfemur 0 0 0
rtibia 0
rfoot 0 0
rtoes 0
lfemur -7.27809 -7.50177 -10.4719
ltibia 21.7776
lfoot -22.8834 17.3476
ltoes -54.8784
212
root -0.78371 18.75 5.08406 2.6722 -2.07479 -3.11355
lowerback 3.90523 1.62968 -4.2572
upperback 0.826513 1.96009 -2.21557
thorax -1.40424 0.990053 0.00832958
lowerneck -13.7259 0.629632 1.68294
upperneck 35.6979 -0.627364 3.0106
head 14.6299 0.366195 0.840807
rclavicle -1.0138e-014 -7.95139e-015
rhumerus 33.6587 59.5454 -29.4248
rradius 101.767
rwrist -17.6714
rhand -3.2543 -47.2447
rfingers 7.12502
rthumb 22.4699 -75.9575
lclavicle -1.0138e-014 -7.95139e-015
lhumerus 5.10932 -46.5322 52.7965
lradius 81.7946
lwrist 44.4826
lhand 3.06117 -25.634
lfingers 7.12502
lthumb 28.519 2.21143
rfemur 0 0 0
rtibia 0
rfoot 0 0
rtoes 0
lfemur -7.17612 -7.27986 -10.4394
ltibia 21.7641
lfoot -22.8839 17.3117
ltoes -54.8186
213
root -0.780626 18.7499 5.0781 2.63405 -2.1289 -3.16851
lowerback 4.02611 1.73046 -4.04452
upperback 0.79899 2.09372 -2.2665
thorax -1.49505 1.05734 -0.174077
lowerneck -13.6532 0.531576 1.51464
upperneck 35.6667 -0.78724 3.20129
head 14.602 0.301048 0.922706
rclavicle -4.49253e-014 2.06736e-014
rhumerus 31.6574 58.491 -31.5742
rradius 100.167
rwrist -15.2978
rhand -3.69984 -47.5194
rfingers 7.12502
rthumb 22.0422 -76.2833
lclavicle -4.49253e-014 2.06736e-014
lhumerus 5.45401 -46.8133 52.4643
lradius 81.917
lwrist 44.4776
lhand 2.90035 -25.8137
lfingers 7.12502
lthumb 28.3653 2.05744
rfemur 0 0 0
rtibia 0
rfoot 0 0
rtoes 0
lfemur -7.16054 -7.15425 -10.3843
ltibia 21.7959
lfoot -22.85 17.2151
ltoes -54.8278
214
root -0.777306 18.75 5.07584 2.61951 -2.06615 -3.15986
lowerback 4.26988 1.83754 -3.79264
upperback 0.687288 2.22575 -2.41465
thorax -1.73467 1.12559 -0.484879
lowerneck -13.5744 0.40284 1.33121
upperneck 35.6605 -1.02462 3.49354
head 14.5879 0.215127 1.03739
rclavicle -7.55382e-015 2.54444e-014
rhumerus 29.7462 57.7671 -32.9026
rradius 99.4385
rwrist -15.3324
rhand -3.98338 -49.0598
rfingers 7.12502
rthumb 21.7699 -77.8555
lclavicle -7.55382e-015 2.54444e-014
lhumerus 5.82947 -47.2146 52.0404
lradius 82.0457
lwrist 44.4338
lhand 2.97627 -25.8882
lfingers 7.12502
lthumb 28.4379 1.97085
rfemur 0 0 0
rtibia 0
rfoot 0 0
rtoes 0
lfemur -7.19542 -7.1537 -10.3999
ltibia 21.8454
lfoot -22.808 17.1473
ltoes -54.8762
215
root -0.774816 18.7499 5.07702 2.61658 -1.89289 -3.12373
lowerback 4.42875 1.87286 -3.70369
upperback 0.627624 2.26354 -2.50689
thorax -1.87865 1.14571 -0.638617
lowerneck -13.5323 0.334818 1.17044
upperneck 35.6164 -1.14416 3.69164
head 14.5621 0.16934 1.12756
rclavicle 2.76311e-014 3.18055e-015
rhumerus 28.5347 57.5266 -32.9277
rradius 99.6828
rwrist -16.2798
rhand -1.39341 -50.3927
rfingers 7.12502
rthumb 24.2551 -78.8786
lclavicle 2.76311e-014 3.18055e-015
lhumerus 6.174 -47.4095 51.6599
lradius 82.1434
lwrist 44.3843
lhand 2.91868 -25.8735
lfingers 7.12502
lthumb 28.3828 1.9947
rfemur 0 0 0
rtibia 0
rfoot 0 0
rtoes 0
lfemur -7.27765 -7.10677 -10.43
ltibia 21.9083
lfoot -22.6787 16.9928
ltoes -54.9483
216
root -0.772066 18.7508 5.08013 2.62972 -1.59669 -3.12141
lowerback 4.36418 1.80971 -3.7237
upperback 0.710007 2.18614 -2.49379
thorax -1.7576 1.10544 -0.604968
lowerneck -13.5293 0.339229 1.01741
upperneck 35.4508 -1.10644 3.75355
head 14.4837 0.171855 1.18273
rclavicle 2.66371e-014 3.18055e-015
rhumerus 28.1371 57.7051 -31.7259
rradius 100.757
rwrist -17.0415
rhand 0.582675 -51.4931
rfingers 7.12502
rthumb 26.1484 -79.7125
lclavicle 2.66371e-014 3.18055e-015
lhumerus 6.53268 -47.274 51.3193
lradius 82.2118
lwrist 44.3381
lhand 2.72407 -26.0304
lfingers 7.12502
lthumb 28.1969 1.86868
rfemur 0 0 0
rtibia 0
rfoot 0 0
rtoes 0
lfemur -7.42277 -7.12458 -10.4129
ltibia 22.0011
lfoot -22.5459 16.7948
ltoes -55.0229
